ply
format ascii 1.0
element vertex 795
property float x
property float y
property float z
property uchar red
property uchar green
property uchar blue
end_header
 4.00693 0.824786  19.5558 0 0 0
10.6252 9.69317 22.4716 0 0 0
9.61569 -1.6832 27.0407 0 0 0
20.9521 16.0509 22.0511 0 0 0
-5.38037  8.50966  18.3186 0 0 0
1.42438 12.6282 24.6901 0 0 0
-1.49264  9.43611  19.3625 0 0 0
-3.51184 -1.10426  21.6591 0 0 0
 -9.77927 -0.226264   21.0157 0 0 0
  5.6104 -2.78439  33.4195 0 0 0
9.92278 2.16651 26.6449 0 0 0
11.3209 -4.0041 27.1905 0 0 0
 9.28617 -2.25275   26.147 0 0 0
-0.794966   1.23088   28.6478 0 0 0
 2.12436 0.922941  17.6834 0 0 0
   5.23 -1.2784 27.2347 0 0 0
 5.23841 -3.24364  28.2473 0 0 0
 12.3686 -1.81842  26.5988 0 0 0
-3.96565  11.9922  20.8625 0 0 0
 5.30228 0.587161  21.9314 0 0 0
12.9879 8.52025 19.0754 0 0 0
-4.33495  12.1357   20.787 0 0 0
 5.58326 -2.16193  26.3487 0 0 0
 10.2392 0.161769   27.592 0 0 0
0.0848391 -0.471866   22.3033 0 0 0
 5.53205 0.405779  21.9425 0 0 0
 11.7732 -4.10972  26.6348 0 0 0
10.8832 3.96104 21.5556 0 0 0
 9.93115 0.129605  28.5409 0 0 0
-6.19515  7.80444  18.1156 0 0 0
  8.4755 -10.1224  95.8121 0 0 0
8.87547 3.90758 22.2569 0 0 0
5.28588 1.22431 24.2721 0 0 0
10.0022 5.82671 24.2958 0 0 0
1.67608 1.92944  28.815 0 0 0
-9.83509   1.2791  17.6464 0 0 0
5.40273  9.2728 17.9009 0 0 0
5.79153 -3.3541 29.5415 0 0 0
1.99523 5.09156 17.4281 0 0 0
 -8.70027 -0.831408   19.6825 0 0 0
-6.6452 8.69998 18.4288 0 0 0
5.58283 1.25572 23.5422 0 0 0
8.81952 10.0696 24.9283 0 0 0
-7.23911  1.04455  17.1299 0 0 0
3.71025 3.43288 33.3425 0 0 0
6.00749 12.4523 23.0409 0 0 0
 3.32758 0.443224  20.3151 0 0 0
13.6129 9.43285 18.0922 0 0 0
6.09316 3.84345  18.396 0 0 0
 12.9761 -5.31722   33.189 0 0 0
9.60536 8.76458 23.6735 0 0 0
 -10.192 0.922129  26.5375 0 0 0
 5.26025 -2.76783  27.6446 0 0 0
  14.3428 -0.672818   28.3538 0 0 0
5.48989 -3.3341  26.698 0 0 0
 -1.84409 -0.456248   25.9575 0 0 0
-6.57486  7.26078  17.8988 0 0 0
3.58209 2.90552 30.9526 0 0 0
10.7757 3.05005 21.8229 0 0 0
  2.13766 -0.685178   23.3751 0 0 0
4.88913 11.2672 19.0339 0 0 0
 5.80808 -2.12228   26.224 0 0 0
10.6982 3.81588 21.1317 0 0 0
-7.9276 5.43448 17.5172 0 0 0
-9.41889 -1.44521   21.922 0 0 0
 11.1584 -1.98094  26.3244 0 0 0
 -2.37962 0.0527584   20.5778 0 0 0
-3.32854  3.98902  16.5556 0 0 0
-6.6636 5.75057 18.1164 0 0 0
2.06129 9.21021 20.3852 0 0 0
5.81535  3.5214 32.5878 0 0 0
-4.18183  4.56983  16.8487 0 0 0
1.51447 3.25108 29.9354 0 0 0
2.90959 15.3429  25.612 0 0 0
11.4704 2.28548 21.7054 0 0 0
-2.89096  4.84959  17.7262 0 0 0
 -6.64793 -0.694914   22.4428 0 0 0
7.90645  3.0656 27.3906 0 0 0
 11.1946 -6.77362  33.1811 0 0 0
11.6164 2.55056 21.8746 0 0 0
10.1249 9.65046 17.7113 0 0 0
 -8.26535 -0.916839   20.0369 0 0 0
-10.5058 -0.33963   22.014 0 0 0
11.7738 9.72376 18.1294 0 0 0
9.86541 3.71059 30.8868 0 0 0
 5.06738 -2.34662  26.7062 0 0 0
4.97138 10.2263 18.2217 0 0 0
12.0358 8.81123 18.6278 0 0 0
9.84418 9.50834 22.6286 0 0 0
5.11912  11.711 18.4563 0 0 0
-9.53031 0.614184  18.4317 0 0 0
-6.60229 -1.14533  25.5528 0 0 0
6.89218 -1.5765 27.3692 0 0 0
 -3.38718 -0.191832   27.9432 0 0 0
5.67094 1.33332 24.9546 0 0 0
-3.58182  12.2002  20.8671 0 0 0
 5.26204 -1.81418  27.6202 0 0 0
-1.71186 0.183273  26.2523 0 0 0
-5.58459  4.36655  17.0858 0 0 0
-11.552 0.59586 20.1629 0 0 0
-10.6316   8.8743  19.8546 0 0 0
3.30912  3.9098 28.5657 0 0 0
5.29555 10.6438 18.2299 0 0 0
  9.77578 -0.835811    27.586 0 0 0
-1.1785  11.175 21.3183 0 0 0
5.15965 9.39354 16.9195 0 0 0
10.4266 4.12905 20.7375 0 0 0
0.66954 0.90372 17.7776 0 0 0
-4.79195  4.79451  17.3874 0 0 0
-11.4876 0.493062  20.5667 0 0 0
5.34657 5.22717 18.4723 0 0 0
-8.28876 -1.09723  22.5407 0 0 0
-6.80659  4.40572  17.5795 0 0 0
10.9708 13.6589 21.4647 0 0 0
-8.58114  3.38945    16.61 0 0 0
-8.24276 -1.19089   20.869 0 0 0
3.79809 3.35327 18.0187 0 0 0
10.0857 9.05882 22.4908 0 0 0
 5.23421 -1.36095  27.2976 0 0 0
-11.3973  1.63837  25.3399 0 0 0
  7.54614 -0.662027   28.2077 0 0 0
0.944061  1.59992  27.7579 0 0 0
9.81385 9.33733 17.6992 0 0 0
5.14825 3.39749 29.9166 0 0 0
-6.8509 10.3057 19.4125 0 0 0
10.5563 8.72352 23.3246 0 0 0
2.56493 4.20149 32.0737 0 0 0
-0.665295   1.57927   29.2113 0 0 0
1.33703 2.02328 17.4312 0 0 0
-2.64368  1.30155  28.9417 0 0 0
13.8116 6.32998 24.1303 0 0 0
6.38426 1.73468 20.8103 0 0 0
10.5634 2.74639 21.2046 0 0 0
 14.3325 -1.65389  27.1475 0 0 0
-8.82831  10.2515  19.9927 0 0 0
6.23452 -2.0307 26.3548 0 0 0
3.24515 3.81021 29.1919 0 0 0
-8.0388 -1.0148 19.9383 0 0 0
2.13538 1.99226 27.7697 0 0 0
2.14147   2.836 28.7188 0 0 0
-0.354006   1.07304   27.9148 0 0 0
 -2.35867 -0.688646   25.4309 0 0 0
-3.13958  3.84703  16.7299 0 0 0
-1.35304  3.37635  18.1089 0 0 0
12.3501 2.27815 21.6027 0 0 0
-8.41902  9.02765  19.5406 0 0 0
 11.8916 -5.00825  30.8494 0 0 0
2.30274 4.70618 31.8786 0 0 0
3.57957  15.256 25.1327 0 0 0
-3.20209 0.543814  27.9119 0 0 0
1.56587 1.31893 26.8645 0 0 0
0.932014  4.62086  30.3525 0 0 0
12.1243 9.59862 18.1772 0 0 0
-7.92528  8.70438  18.6461 0 0 0
9.92604 24.5561 18.9133 0 0 0
-9.00596  7.79022  18.8056 0 0 0
 -1.73377 -0.398385    25.896 0 0 0
  12.2934 -0.620395   25.3469 0 0 0
-6.54449  8.02195  18.2468 0 0 0
2.51596 15.6385 25.4664 0 0 0
 -8.45777 -0.302351   18.4198 0 0 0
5.30946 1.78241 34.6941 0 0 0
-1.34852  1.34376  18.2581 0 0 0
5.73803 3.18423 29.1982 0 0 0
10.9593 2.88058 21.6046 0 0 0
4.48936 2.88561 32.8131 0 0 0
0.790763  2.17478  17.3964 0 0 0
  13.267 -1.88397  26.3692 0 0 0
2.75076  10.378 20.6619 0 0 0
-6.34947 0.665412  16.5017 0 0 0
9.01646 9.72698 18.7841 0 0 0
 5.08876 -2.71275  28.7084 0 0 0
-0.291666    11.798   21.9934 0 0 0
-99.3364  111.515  125.007 0 0 0
 4.1543 3.51904 34.2876 0 0 0
-8.66831 -0.57785  19.3024 0 0 0
-7.88086  8.35881  18.4696 0 0 0
-0.870841    5.1471   17.2614 0 0 0
-100.869  108.748  106.576 0 0 0
12.9801  2.2734   21.58 0 0 0
3.84384 9.97312 20.7058 0 0 0
6.70495 1.76342 22.6627 0 0 0
-2.90292  7.74082  17.9119 0 0 0
  -2.95104 -0.0694701    20.0104 0 0 0
9.59208 9.80788 18.1718 0 0 0
 -1.01629 -0.442513   21.6962 0 0 0
-3.07729  8.15939  18.3418 0 0 0
 3.8276 3.76143 32.3219 0 0 0
6.08006 4.58335 18.5919 0 0 0
8.32555 3.21578 29.7679 0 0 0
 3.2217   1.009 18.4631 0 0 0
5.39658 14.9234 17.0917 0 0 0
-5.25497  8.95913  18.3532 0 0 0
 -7.65676 0.0182561   17.7947 0 0 0
9.99179 9.34263 17.5761 0 0 0
 4.3467 8.33439 20.0204 0 0 0
10.3575 7.90271 22.7906 0 0 0
 -6.28572 -0.954984   24.8635 0 0 0
0.447179  1.36839  27.8693 0 0 0
3.50181 6.31474 18.8695 0 0 0
-4.69929  11.5546   19.946 0 0 0
3.60883 2.28071 28.6768 0 0 0
4.61635 1.89506  18.769 0 0 0
  5.372 9.36448 18.0401 0 0 0
  -4.23362 -0.0888108    27.9974 0 0 0
-4.2311  6.3439 17.1895 0 0 0
11.4586 9.83281 17.9359 0 0 0
10.2969   2.065 31.1168 0 0 0
  -3.3859 -0.112424   27.8914 0 0 0
-1.69785  1.18989  18.0775 0 0 0
-1.75574 0.694348   18.933 0 0 0
  4.9275 0.891416  23.4686 0 0 0
 5.09219 -2.50493  27.4204 0 0 0
11.3443 3.33963 21.1698 0 0 0
3.59118 2.63475 30.6056 0 0 0
10.2274 6.90252 22.0882 0 0 0
1.89389 2.57987 18.3645 0 0 0
10.2323 10.0028 17.6551 0 0 0
 11.0982 -2.04998  26.2785 0 0 0
 -7.48405 -0.960111   26.0838 0 0 0
10.1693 2.97774 20.7353 0 0 0
-3.18734 0.969194  29.2428 0 0 0
-2.61761  1.36048  29.5699 0 0 0
-0.0729372    1.07432    27.5171 0 0 0
-9.51859 -0.98379  22.7907 0 0 0
-3.02503 0.379366  20.1973 0 0 0
-0.0311008    1.62613    16.9775 0 0 0
2.56716 4.07203 17.1766 0 0 0
5.46398 3.25763  32.617 0 0 0
6.06846 3.28125 29.8987 0 0 0
 -8.89244 -0.715482   21.2679 0 0 0
-4.22378  1.26719  29.4869 0 0 0
4.31864 3.96649 30.8781 0 0 0
-12.1451  2.04541  25.6536 0 0 0
10.8249 3.10125 22.5114 0 0 0
10.6121  3.0202 20.5964 0 0 0
8.44897 10.5265 16.1651 0 0 0
-1.38286 0.538936  19.9934 0 0 0
6.02158 5.51022 18.1657 0 0 0
-5.23765 0.940007  29.6963 0 0 0
9.73924  3.5452 26.3687 0 0 0
5.48433   5.522 18.1092 0 0 0
10.3389 4.12651 20.7039 0 0 0
-3.98613  2.08545  29.9582 0 0 0
9.80042 10.5589 22.8714 0 0 0
-3.27687  1.00863  29.3093 0 0 0
 4.79007 -2.49089  26.4695 0 0 0
14.0188 10.6515 18.8668 0 0 0
12.0881 8.04751 19.0305 0 0 0
10.1823 9.39203 22.3965 0 0 0
 11.4173 -2.05311  26.4915 0 0 0
-2.06073  1.91763  30.0135 0 0 0
-1.36821  1.39681  28.7693 0 0 0
-5.02499 -1.38067   25.306 0 0 0
5.53884 3.04245 27.9137 0 0 0
7.84026 3.25445 27.4738 0 0 0
6.03528 1.25318 22.2999 0 0 0
-8.18161 -2.82329  16.4927 0 0 0
-2.09695  1.54622  18.0818 0 0 0
16.6329 14.0014 20.6614 0 0 0
12.2629 7.87792 19.0991 0 0 0
 11.8485 -2.10976  26.4041 0 0 0
-3.23017  1.12998  29.3846 0 0 0
-6.7189 8.67563 18.1954 0 0 0
 9.5178 1.89578 24.8067 0 0 0
10.4516 10.2853 22.4661 0 0 0
 2.90903 0.703778  19.4166 0 0 0
-0.639655   11.5901   22.1236 0 0 0
 12.492 -1.8001 26.7728 0 0 0
12.1166 9.88203 18.1042 0 0 0
-0.651258   11.7568   21.7807 0 0 0
10.5577   3.037 21.6685 0 0 0
   -9.3786 -0.0890898     19.136 0 0 0
2.38673 3.21396 17.5973 0 0 0
6.33057 10.8212  15.653 0 0 0
-6.87748  5.02897   17.364 0 0 0
5.61904  4.3579  18.356 0 0 0
-1.60213  1.52478  17.5305 0 0 0
-6.73503 0.298003  17.4894 0 0 0
3.32534 4.30936 35.3217 0 0 0
3.65575 2.83455 28.6464 0 0 0
5.10251 -2.7501  26.548 0 0 0
11.8624 9.42162 17.6892 0 0 0
 9.10661 -2.13911  26.2386 0 0 0
11.5536 10.0506 17.5812 0 0 0
4.68171 10.0475 15.3276 0 0 0
9.08619 10.6436  19.138 0 0 0
10.0073 9.87869 22.7566 0 0 0
5.67279  3.5213 29.8279 0 0 0
5.20758 9.03224 17.4661 0 0 0
6.15135 9.47031 17.6832 0 0 0
-6.95396  3.70244  17.1699 0 0 0
-6.76392  4.97257   17.481 0 0 0
1.88679 2.96505 17.5928 0 0 0
5.27591 4.43788  18.168 0 0 0
16.8402 13.0214  20.771 0 0 0
 -6.3439 0.555188  16.9159 0 0 0
-2.08747  0.91794  17.2933 0 0 0
5.57305 2.83433 18.3077 0 0 0
13.8243 6.13334 23.9966 0 0 0
 5.50766 -2.58106   25.795 0 0 0
2.52729 4.77015 32.5504 0 0 0
3.11661 3.22012 31.0599 0 0 0
5.15164 10.1798  18.586 0 0 0
 2.6182 3.54636  17.278 0 0 0
3.30524  3.5916 17.8879 0 0 0
5.07289 10.6648   16.34 0 0 0
4.97251 10.4606 18.2726 0 0 0
-2.01077 0.173493  20.6511 0 0 0
  12.0625 -0.362178   25.2832 0 0 0
10.1263 8.93311 19.5109 0 0 0
3.42127 1.73639 18.5316 0 0 0
-3.01373 0.498031  20.2036 0 0 0
 7.35302 0.290353  27.3462 0 0 0
12.2542 9.83463 17.9038 0 0 0
7.46178 7.45811 18.6764 0 0 0
 -8.83019 -0.615228   19.8446 0 0 0
11.2255 2.85184 22.5357 0 0 0
3.40971 4.67518 32.7158 0 0 0
-1.50796 0.876159  27.3263 0 0 0
 9.18783 -1.71183  26.4045 0 0 0
10.7353 9.38616 17.6965 0 0 0
10.2374 9.55015 24.3903 0 0 0
 5.66403 -2.43701  25.9945 0 0 0
-3.99628 0.520162  28.6028 0 0 0
 -1.63718 -0.239072   25.9162 0 0 0
 5.02969 -3.00157  27.7378 0 0 0
 12.4414 -7.23515  102.122 0 0 0
8.15975 11.1548 22.2762 0 0 0
10.4587 3.37435 21.1846 0 0 0
 10.9203 -2.13211  28.6801 0 0 0
-7.38303  2.31739  17.2416 0 0 0
 5.1401 9.98446 18.5056 0 0 0
5.10706 1.66675 24.0508 0 0 0
 -8.00341 -0.729201   24.0193 0 0 0
-10.7162 0.079741   22.552 0 0 0
  5.61017 -0.623924   27.3289 0 0 0
10.1964 10.0426 19.7181 0 0 0
-2.82188   5.9276  17.1232 0 0 0
-5.70225  6.91943  18.0164 0 0 0
3.54381 5.45013 18.1516 0 0 0
12.1224 3.98225 20.3244 0 0 0
   -2.326 -0.698557   21.6687 0 0 0
 5.04546 -1.59451  27.3488 0 0 0
11.9033 9.10638 18.1349 0 0 0
9.95974 7.86114 22.9251 0 0 0
-10.1313  8.15859   19.142 0 0 0
-3.27557 0.666312  28.1743 0 0 0
13.9445 9.63129 17.9515 0 0 0
-11.6527 0.799442  21.3792 0 0 0
4.61425 3.14141 33.8998 0 0 0
-9.68418  1.95055  17.3117 0 0 0
-0.99199  1.33326  17.6206 0 0 0
12.1579 2.16299 21.4106 0 0 0
-10.1545  3.59268  17.7499 0 0 0
-4.0478 4.41887   17.11 0 0 0
-4.53917  7.05716  18.4291 0 0 0
1.56585 3.16141 30.8944 0 0 0
12.9726 4.21603 20.3375 0 0 0
1.91756 3.67194 29.9257 0 0 0
7.89061 9.86737 18.3336 0 0 0
11.5039 9.72707 17.5726 0 0 0
 -9.35556 -0.808034    20.804 0 0 0
-2.16103 0.778569   28.491 0 0 0
5.71314 4.39706 18.9614 0 0 0
 14.3276 -1.64046   26.889 0 0 0
-10.0269  1.68474  17.7166 0 0 0
8.75152 9.64601 18.0729 0 0 0
4.69841 2.11898 18.9327 0 0 0
9.37119 9.96321 24.0235 0 0 0
9.95563 8.93571  25.751 0 0 0
-2.20114  4.23947  17.9701 0 0 0
-4.55338 -0.52593    23.96 0 0 0
  10.082 -2.19794  26.3344 0 0 0
12.6489 4.27422 20.8298 0 0 0
-1.20778  1.51294  18.0277 0 0 0
9.09922  6.3296 26.8747 0 0 0
 3.32198 0.494056  20.2718 0 0 0
 15.3338 -5.25007  32.2982 0 0 0
-0.419426  0.148086    28.162 0 0 0
2.03975 4.62351   31.81 0 0 0
-3.35992  3.85192  16.3326 0 0 0
10.1557 9.74503 17.8108 0 0 0
 -11.88 1.22061 20.8976 0 0 0
5.83748 3.14122 31.9662 0 0 0
 -1.3668 0.570392  27.1387 0 0 0
 9.97165 -2.33758  26.2221 0 0 0
5.81557 9.76672 19.6043 0 0 0
11.6134 2.72883 20.7999 0 0 0
3.63968 3.81303 30.7512 0 0 0
-1.13839  11.0947  21.2238 0 0 0
-8.47188  2.71955  16.4986 0 0 0
-10.3912  1.39046  18.3733 0 0 0
-2.2633 3.88627 17.8632 0 0 0
-6.44475  6.45018  17.7186 0 0 0
-99.6015  106.695  114.281 0 0 0
 5.4967 13.8544 17.9964 0 0 0
-9.06953  8.57911  18.8514 0 0 0
-2.40477  11.4158  21.3794 0 0 0
4.06199 14.5862 24.1944 0 0 0
-11.7907 0.583644  21.9309 0 0 0
  9.70798 -0.389236    26.071 0 0 0
5.21732 10.2352 17.5894 0 0 0
10.6289 9.75467 22.4846 0 0 0
2.32337 3.77809 17.3127 0 0 0
5.82145 3.52814 29.9137 0 0 0
 9.5794 2.58555 23.9367 0 0 0
-1.45977  8.76486  19.0279 0 0 0
 5.22368 -1.10911  27.6379 0 0 0
1.59034 2.48545 17.9334 0 0 0
9.79289 6.51611 22.2145 0 0 0
 5.96559 -4.16819  27.4303 0 0 0
  -5.8371 -0.615155   24.4849 0 0 0
7.14868 10.8639 16.1663 0 0 0
-4.86527  6.41692  17.2548 0 0 0
 6.8669 4.94965 18.9569 0 0 0
11.3643 12.6616 22.3912 0 0 0
 5.15255 -2.58996   27.039 0 0 0
  -2.95966 -0.0190048    19.9466 0 0 0
6.86522 9.96658 18.2873 0 0 0
5.57657 10.8174 16.7125 0 0 0
-1.6673 8.00875 18.8516 0 0 0
3.82457  18.861 23.1847 0 0 0
 4.64188 -3.16951  27.3452 0 0 0
 -8.83041 -0.872216   20.9188 0 0 0
-2.23689  3.70464  17.7457 0 0 0
 3.31719 0.432169  20.2186 0 0 0
  14.546 -3.87097  28.5726 0 0 0
2.41949 1.44356 28.0637 0 0 0
9.46391 1.29624 23.9474 0 0 0
6.05186  3.0733 30.3681 0 0 0
-2.1235 1.27632  15.887 0 0 0
-9.62421 -1.04503  22.0734 0 0 0
-8.86615 0.275847  17.7684 0 0 0
6.22756 2.82396 20.8953 0 0 0
  -3.0106 -0.284545   21.2873 0 0 0
 5.7914 5.03871 18.5756 0 0 0
1.08944  2.2859 28.3724 0 0 0
-9.86695  5.55064  18.0329 0 0 0
 -9.01002 0.0480287   18.4321 0 0 0
 -9.33893 0.0328112   18.6436 0 0 0
5.07194 12.0591 17.0947 0 0 0
-2.21475 0.515559  20.2034 0 0 0
4.31564 2.62332 32.4272 0 0 0
-7.25567   2.0569  17.0864 0 0 0
8.91012 4.04373 23.3084 0 0 0
 -8.07707 -0.622694   24.1415 0 0 0
12.4092 9.82729  18.078 0 0 0
10.2204 9.38606 22.9264 0 0 0
-2.76079  8.50401  18.6269 0 0 0
-10.0251  8.68885  19.8336 0 0 0
 4.3889  7.8914 17.7165 0 0 0
 -2.68686 0.0716076   20.4921 0 0 0
5.23161 3.36581 32.9346 0 0 0
8.22555 11.8727  23.141 0 0 0
 9.37762 -4.05084  27.7313 0 0 0
 5.05801 -2.79224  26.6035 0 0 0
-3.66862  7.92107  17.9876 0 0 0
 -11.0075 -0.244341   22.2582 0 0 0
-7.80096 -1.05596  22.0617 0 0 0
 -2.93106 -0.453664   21.1259 0 0 0
 5.04885 -1.79284  27.1797 0 0 0
-2.51015 -0.72729  21.2706 0 0 0
-8.48943 0.135528   17.851 0 0 0
0.455338  10.6765  21.4482 0 0 0
9.96094 10.2593 18.7646 0 0 0
4.74784  2.2323 35.6134 0 0 0
5.69282 1.12651 21.2167 0 0 0
14.1098 -4.0009 27.7102 0 0 0
 10.9614 -4.13072  27.3187 0 0 0
10.1649 2.78226 26.0169 0 0 0
-2.24642  3.97674  17.9097 0 0 0
-2.63029  12.5708  21.9545 0 0 0
-7.68862  2.43619  17.0737 0 0 0
1.92525 9.95224 21.0964 0 0 0
 -10.8672 0.0750795   21.4724 0 0 0
 -2.37772 0.0743011   20.6224 0 0 0
-6.51275  4.25855  17.5006 0 0 0
-2.02337  1.13668  18.1233 0 0 0
11.2021 -8.7387 103.921 0 0 0
10.6848 2.78199 22.2353 0 0 0
-11.5178  1.28252  25.4871 0 0 0
 10.527 2.60391 22.3099 0 0 0
 -8.64235 -0.530614   19.3128 0 0 0
 8.29195 -8.90768   104.34 0 0 0
 5.07268 -1.65516  27.2212 0 0 0
 -7.99172 -0.769355   19.2314 0 0 0
 -9.14148 -0.679744   20.5328 0 0 0
 -9.34568 -0.683259   19.3652 0 0 0
-9.31906 0.330056  18.0958 0 0 0
5.82146 1.36096 20.2653 0 0 0
10.1305 8.58937 22.6943 0 0 0
 -7.68481 -0.620173   18.5842 0 0 0
5.35068 10.7754 16.2606 0 0 0
  -8.11102 -0.0226432    17.9841 0 0 0
-0.923584   4.85633   17.4442 0 0 0
10.6254 3.37939 20.8821 0 0 0
14.1385 10.4146 23.0094 0 0 0
-2.6507 4.47952 17.2219 0 0 0
-7.41654  4.20393  17.3576 0 0 0
-3.67043  7.67562   17.488 0 0 0
10.9242 9.76006 18.0542 0 0 0
-1.17947   10.462  20.9149 0 0 0
-10.3897   1.4275  20.6316 0 0 0
14.0033 9.50479 17.9812 0 0 0
  1.71899 0.0773394   18.0646 0 0 0
10.0609 3.81209 26.1187 0 0 0
6.29329 9.46876 17.7605 0 0 0
 -9.53037 -0.706008   21.4638 0 0 0
7.87727 3.14999  27.378 0 0 0
 -2.4212 0.982254  28.6624 0 0 0
7.86974 3.48128  27.237 0 0 0
 -9.83206 -0.529367   20.9678 0 0 0
 -7.89079 -0.804338   20.5287 0 0 0
-7.74005  2.15485  16.8141 0 0 0
3.32058 1.07816 18.5893 0 0 0
-11.565  3.1827 19.9711 0 0 0
-10.7485  1.82209  27.3891 0 0 0
-3.93715  6.14136  17.4848 0 0 0
-2.21482  4.01834  17.7844 0 0 0
 10.4139 -1.97512  26.2245 0 0 0
-8.5914 7.81544 18.5126 0 0 0
-8.55014 0.127101  17.9062 0 0 0
5.17561 7.07621 19.6408 0 0 0
7.97078 11.8253 20.3095 0 0 0
5.18094 3.03565 33.1062 0 0 0
-2.74434  5.03055  17.6655 0 0 0
-5.60821  8.02852   17.826 0 0 0
  7.8489 -2.21457  26.0993 0 0 0
10.9122 9.64755 18.0504 0 0 0
 -7.98085 -0.799629   19.5872 0 0 0
-2.53995   7.6817  18.0376 0 0 0
4.23901 3.06645  34.699 0 0 0
-1.70341  1.24266  18.1509 0 0 0
3.29077 15.1489 25.9988 0 0 0
 8.80644 -1.55284  26.7553 0 0 0
-1.32227  1.29626  18.2582 0 0 0
-1.60769  9.49919  19.4086 0 0 0
5.44738 11.6368 16.5966 0 0 0
-2.11045  4.55709  17.6433 0 0 0
 -9.01402 -0.966156   21.6836 0 0 0
-6.87945  1.42392   17.104 0 0 0
 5.30042 -2.22547  26.3358 0 0 0
3.90375 2.76491 32.9729 0 0 0
8.79116  9.8974 18.4538 0 0 0
 5.12768 -1.93549  28.5873 0 0 0
 10.3216 -6.49799  33.6295 0 0 0
-5.23963  8.10314  18.0196 0 0 0
 -8.48875 -0.132254   18.4791 0 0 0
5.23725 1.81656 33.0352 0 0 0
 -9.04726 -0.436409   19.1312 0 0 0
 11.9108 -1.16962  25.7254 0 0 0
-4.15777  -1.0472  25.0507 0 0 0
9.90431 10.6956 22.6475 0 0 0
10.7882 10.6544  22.306 0 0 0
-9.2769 11.0381 20.4072 0 0 0
12.3003 8.22407  18.723 0 0 0
10.0117 9.63538   18.02 0 0 0
-6.99816  8.25081  19.1479 0 0 0
 5.13808 -2.13738  27.3957 0 0 0
4.39416 13.5328 23.4303 0 0 0
-9.48928  7.81144   18.857 0 0 0
5.41168 7.70589 19.3574 0 0 0
 5.38424 -2.68628  26.2141 0 0 0
   12.425 -0.145081   25.4411 0 0 0
8.17999  11.277 23.2565 0 0 0
 11.0795 -1.77275  26.8214 0 0 0
5.44206 5.27351 19.1308 0 0 0
5.46043 4.19045 18.6099 0 0 0
6.29103 1.33581 22.1008 0 0 0
 -8.33597 -0.895484   19.9565 0 0 0
 5.08841 0.867283  24.1306 0 0 0
-3.4282 4.33284 16.4304 0 0 0
5.95238 2.75558 18.5009 0 0 0
10.1597 3.47236 22.2775 0 0 0
 -10.6784 -0.210822   21.4857 0 0 0
 -2.29473 -0.600082   21.4069 0 0 0
 4.94727 -2.54652  25.8469 0 0 0
4.87697 11.8614 25.4057 0 0 0
6.15211 2.94071 29.9955 0 0 0
-11.8552  8.96274  20.3766 0 0 0
5.40619 2.11168 33.6518 0 0 0
-8.16455  -1.0688  19.9728 0 0 0
 4.98542 -2.07071   26.292 0 0 0
3.54091 1.66218   18.75 0 0 0
 5.55899 0.624982  21.8366 0 0 0
5.09103 12.4777  17.219 0 0 0
5.52345 12.2671 17.0858 0 0 0
4.99285 12.2288 19.6242 0 0 0
6.78011 3.56235 20.0536 0 0 0
10.3984  3.3669 21.0326 0 0 0
 -5.96858 -0.620747   19.7207 0 0 0
9.49151 9.81035 18.2083 0 0 0
6.86473 10.1164 18.3932 0 0 0
 -98.01 108.879  104.84 0 0 0
 3.4634 8.28072 19.8817 0 0 0
-98.6732  102.823  111.714 0 0 0
 5.72232 0.926985  21.2248 0 0 0
 4.63852 -1.51146  24.8096 0 0 0
-2.75737  3.41073  17.3954 0 0 0
10.5771 2.67264 22.2462 0 0 0
11.9234 9.56795 17.7468 0 0 0
-0.950678  0.968207   18.2341 0 0 0
2.05566 1.65599  19.488 0 0 0
-1.72782  7.78724   18.492 0 0 0
5.26006 9.94494 21.5506 0 0 0
4.96868 11.5164 18.3516 0 0 0
-6.59672  5.88704  17.9084 0 0 0
3.26082 3.68904 18.0096 0 0 0
11.4406 2.78392 22.3891 0 0 0
 -8.33974 -0.578701   19.6171 0 0 0
 5.38463 -3.17685  27.0609 0 0 0
 5.10497 -2.86771  27.7711 0 0 0
  5.26409 -0.721046   30.5146 0 0 0
5.03515 2.27312 34.6998 0 0 0
  -2.8111 -0.181899   20.2606 0 0 0
  1.6126 0.600627  18.5678 0 0 0
 5.8677  1.2539 24.0751 0 0 0
4.02004 1.04716 20.3688 0 0 0
-1.40901 0.430838  18.7389 0 0 0
3.69217 3.37429  18.013 0 0 0
0.730935  2.05667  17.5301 0 0 0
-2.24384  0.77518  19.4644 0 0 0
-1.43198 0.554675  19.9903 0 0 0
 -6.60586 -0.562247   22.2451 0 0 0
9.77293  13.284 20.5138 0 0 0
  9.30402 -0.941795   27.6962 0 0 0
 -2.32888 0.0383334   20.5971 0 0 0
2.83367 9.60462 20.3901 0 0 0
-2.03848 0.799531  19.0009 0 0 0
 3.75912 0.794403  20.1241 0 0 0
11.7324 15.8591 22.2826 0 0 0
  -2.25668 0.00966406    20.8382 0 0 0
1.63818 2.18216 17.9714 0 0 0
 -5.99492 -0.670572   24.6609 0 0 0
5.91732 1.22308 19.9289 0 0 0
-9.69788 0.238146  18.7881 0 0 0
5.07668 12.0479 17.3986 0 0 0
5.82365 9.36167 17.5429 0 0 0
 11.5096 -1.98593  26.0475 0 0 0
 -2.27151 -0.648902   25.6942 0 0 0
 4.72827 0.332213  23.9853 0 0 0
-7.61243  9.58224   19.146 0 0 0
 4.99319 -1.46912  28.3918 0 0 0
 12.0948 -1.98419  26.4076 0 0 0
    -8.40893 -0.000175092      17.8847 0 0 0
-10.6306   2.9367  17.8357 0 0 0
 -10.0516 -0.343663   20.6894 0 0 0
 10.0286 -1.80043  26.5221 0 0 0
3.26045  3.6689 17.9417 0 0 0
-11.2952  3.82463  18.7916 0 0 0
 -7.34446 -0.849303   20.8304 0 0 0
 5.1204 11.0621 17.7408 0 0 0
5.26218 12.9716 17.0954 0 0 0
10.1977 8.18042  23.464 0 0 0
-8.76403 -0.83971  19.8362 0 0 0
4.30341 5.76962 18.2482 0 0 0
4.57107 11.2534 24.4793 0 0 0
13.8815 9.75169 18.2101 0 0 0
  11.9775 -0.686884    25.355 0 0 0
 -9.85135 -0.972305   21.6626 0 0 0
6.70748 2.72905   19.99 0 0 0
-5.79018  7.39297  18.4226 0 0 0
 -2.28296 -0.326453   21.1081 0 0 0
-1.97104  2.64776  17.7639 0 0 0
-2.07022   2.5777  18.1347 0 0 0
 11.6942 -2.32511  27.1114 0 0 0
 5.61795 0.991324  23.3151 0 0 0
 8.3794 9.76887 18.2098 0 0 0
3.00579 10.0387 21.6488 0 0 0
-2.80059  3.14646  17.3575 0 0 0
3.32959  1.8632 18.0518 0 0 0
9.63448 -2.0474 26.4556 0 0 0
 11.0535 -1.80221  26.8463 0 0 0
 3.4682 1.82696 18.5834 0 0 0
2.00846 1.22738 19.5401 0 0 0
10.5398 9.62111 18.1101 0 0 0
3.49215 1.61538 18.5017 0 0 0
-1.29268 0.763291  19.8819 0 0 0
  6.1527 -2.08242  26.1941 0 0 0
11.9823 9.20816 18.2209 0 0 0
-119.111  61.5375  183.665 0 0 0
 -118.8 58.2134 180.426 0 0 0
 9.83084 -2.07425  26.2196 0 0 0
2.83923  10.545 22.7021 0 0 0
-2.97773 -0.02489  20.0617 0 0 0
2.19834 9.85193 21.4239 0 0 0
0.762661  2.97734   17.681 0 0 0
  12.2212 -0.218722   25.3947 0 0 0
 10.8031 -2.02117  26.3506 0 0 0
 12.2137 -1.94615  26.5903 0 0 0
-9.53512  7.53461  18.8468 0 0 0
 8.46848 -2.27084  26.0427 0 0 0
5.49839 7.25861 20.1829 0 0 0
 3.44138 0.506128  20.5205 0 0 0
5.37802 4.91995 18.4519 0 0 0
-0.690381   11.7007   21.7269 0 0 0
5.06094 10.6525 17.3686 0 0 0
-2.56979  3.88031  17.9588 0 0 0
-2.70984  3.60355  17.5908 0 0 0
-4.10132  11.0065    19.61 0 0 0
10.8406 4.55588 21.5338 0 0 0
5.25052  9.5382 17.1965 0 0 0
  11.9659 -0.727225   25.3178 0 0 0
-3.68696  12.9914  21.6825 0 0 0
 9.58014 -1.78177  26.6711 0 0 0
 -8.37513 -0.583961   19.3445 0 0 0
10.5995 2.76645 21.6996 0 0 0
12.6617 11.7911 16.4179 0 0 0
-2.41068 0.151003  20.6423 0 0 0
 5.33964 -3.27429  26.6296 0 0 0
5.13712 10.5975 17.9777 0 0 0
8.27417 11.5424 23.6145 0 0 0
 5.02641 -2.27295  26.1217 0 0 0
  10.0933 -0.366525   30.8053 0 0 0
 10.0331 -0.27492  27.6771 0 0 0
 -2.81132 -0.563594    22.511 0 0 0
  6.0461 -1.85387  26.4458 0 0 0
6.39955  1.5214 20.0697 0 0 0
 -2.22226 -0.722536   21.8782 0 0 0
-6.85383 -2.37855  22.0103 0 0 0
-4.00551 -0.77011  27.0776 0 0 0
10.5106 3.38342 21.3321 0 0 0
 5.13784 -2.16418  26.5647 0 0 0
 4.93745 -2.15712  27.4812 0 0 0
 5.07655 -2.04007  28.2301 0 0 0
11.4047 3.94915 20.2881 0 0 0
 -2.53336 -0.827567   25.3676 0 0 0
10.5737  3.2052 20.7318 0 0 0
-2.58789  1.40786  29.5845 0 0 0
10.0031 9.64674 18.0519 0 0 0
-9.95362  1.50533  17.6641 0 0 0
11.5743 9.49947 18.3017 0 0 0
5.13558 11.6249  17.274 0 0 0
 10.6056 -2.24399  27.6436 0 0 0
-12.4538  8.47701  20.4867 0 0 0
-1.99632 0.835604  27.4239 0 0 0
-6.43256  8.16614   17.852 0 0 0
10.9068 9.68463 17.9926 0 0 0
5.84566 9.51677  17.842 0 0 0
 1.38764 0.405396  18.5238 0 0 0
-2.16151 -1.13018  20.7841 0 0 0
-94.9603  105.796  105.507 0 0 0
10.2283 2.99478  20.256 0 0 0
10.2948 3.22395 20.7825 0 0 0
-8.30712 -0.90285  19.7426 0 0 0
 7.99006 -10.8623  98.7314 0 0 0
 12.0603 -11.6086  96.1218 0 0 0
11.1379  9.4904 17.8034 0 0 0
 -9.13779 -0.719359   21.1048 0 0 0
5.21849 11.7946  19.066 0 0 0
 11.9188 -1.61684  26.0807 0 0 0
4.47213 1.25005 18.6992 0 0 0
 9.8197 6.16144 24.2945 0 0 0
 -8.47952 -0.994556   21.7489 0 0 0
 -3.5309 -1.03909  21.4859 0 0 0
 12.8847 -3.59223  27.4568 0 0 0
 -10.1766 -0.135838   19.8039 0 0 0
-7.40646  9.60596  19.0396 0 0 0
-9.74152  8.28514  19.3258 0 0 0
 0.154269  -1.49968 -0.913999 255   0   0
0.447624  -14.964  7.31239 255   0   0
0.452611 -15.9662  8.68736 255   0   0
0.460326 -17.6574  11.7967 255   0   0
0.440592 -18.6907  14.6857 255   0   0
0.409817 -19.1277  16.5568 255   0   0
0.407724 -11.7784  3.96422 255   0   0
  0.23552  -3.23078 -0.508797 255   0   0
0.461931  -17.467  11.3948 255   0   0
0.409036 -18.4304  13.8682 255   0   0
 0.282049  -4.36884 -0.165287 255   0   0
0.439734 -17.9515  12.5096 255   0   0
0.327829 -8.75155  1.78672 255   0   0
0.426353 -18.1123  12.9191 255   0   0
0.377212 -19.2181  16.9931 255   0   0
0.347842 -6.74541 0.785626 255   0   0
 0.43175 -18.2506  13.3268 255   0   0
0.332873 -6.04773 0.464523 255   0   0
 0.42338 -13.0484  5.14315 255   0   0
-0.0130649     1.7442   -1.27265 255   0   0
0.210897 -6.55971 0.634059 255   0   0
0.266309  -7.1179 0.886517 255   0   0
0.370023 -9.82755  2.47132 255   0   0
0.431912  -18.531  14.1571 255   0   0
0.453899 -16.9499  10.3528 255   0   0
0.442298 -18.3279  13.5319 255   0   0
0.0663731 -0.700882  -1.04927 255   0   0
0.056049 0.994708 -1.23878 255   0   0
0.411025 -14.0544  6.22801 255   0   0
0.420903 -10.8876  3.40351 255   0   0
0.454089  -16.369  9.32755 255   0   0
0.434836 -13.6377  5.75124 255   0   0
0.420201 -9.81238  2.56247 255   0   0
0.376012  -8.4104  1.66238 255   0   0
0.452361 -10.6032  3.13375 255   0   0
